<?xml version="1.0" encoding="UTF-8"?>
<svg version="1.1" xmlns="http://www.w3.org/2000/svg" width="1465" height="1496">
<path d="M0 0 C0.67309582 0.17830384 1.34619164 0.35660769 2.0396843 0.54031467 C4.2669065 1.13192717 6.49154585 1.73270706 8.71630859 2.33349609 C10.32370538 2.76233432 11.93126413 3.19056588 13.53897095 3.61824036 C16.99659083 4.5392932 20.45310729 5.46434079 23.90881348 6.39254761 C29.45975783 7.88342946 35.01310583 9.36521311 40.56689453 10.84545898 C46.39789714 12.39998553 52.22876267 13.9550142 58.05883789 15.51301575 C76.56741669 20.45884014 95.08801581 25.35866723 113.61126709 30.24920654 C119.03860221 31.68218938 124.46562844 33.11633947 129.89257812 34.55078125 C131.24720689 34.90883221 131.24720689 34.90883221 132.62920189 35.27411652 C134.45559759 35.75686648 136.28199263 36.23961896 138.10838699 36.72237396 C141.75997647 37.68752551 145.41160674 38.65252266 149.06323814 39.61751556 C160.87746768 42.73958979 172.69146763 45.86253201 184.50537109 48.98583984 C185.40209282 49.2229109 186.29881454 49.45998196 187.22270966 49.70423698 C191.75056729 50.90129463 196.2784216 52.09836483 200.80627441 53.29544067 C208.96107888 55.45140527 217.11591279 57.60725847 225.27074432 59.76312065 C229.80207944 60.96105379 234.33341267 62.15899405 238.86474609 63.35693359 C240.67724608 63.83610029 242.48974608 64.31526696 244.30224609 64.79443359 C247.92724609 65.75276693 251.55224609 66.71110026 255.17724609 67.66943359 C256.07442887 67.90661983 256.97161165 68.14380608 257.89598179 68.38817978 C259.70852949 68.86735908 261.52107718 69.34653846 263.33362484 69.82571793 C267.86414477 71.02344197 272.39466508 72.22116459 276.92518616 73.41888428 C285.09015446 75.57743289 293.25512009 77.73599161 301.4200716 79.89460373 C305.96282581 81.09559575 310.50558224 82.2965794 315.04833984 83.49755859 C315.94734953 83.73523201 316.84635921 83.97290543 317.77261162 84.21778107 C330.28617661 87.52600573 342.79986348 90.83376903 355.31363297 94.14122009 C396.20976168 104.95035647 437.10365615 115.76789571 477.99533844 126.59384155 C508.72126705 134.72840665 539.44821115 142.8591104 570.17724609 150.98193359 C571.0638026 151.21628616 571.95035912 151.45063873 572.86378098 151.6920929 C586.15569142 155.20566796 599.44770598 158.7188491 612.73974609 162.23193359 C640.72387804 169.62813606 668.70768188 177.02557741 696.69078827 184.42565918 C699.85034847 185.26118158 703.00992042 186.09665948 706.16949463 186.93212891 C718.63170822 190.22748659 731.09375778 193.52346332 743.55549717 196.82061386 C749.04814691 198.27386388 754.54085094 199.7269077 760.03372192 201.17932129 C781.71685879 206.91295344 803.39597006 212.6610612 825.06005859 218.46630859 C825.94747616 218.70383095 826.83489372 218.9413533 827.74920273 219.1860733 C830.22304907 219.84845823 832.69654822 220.51212204 835.16992188 221.17626953 C836.26247221 221.46865383 836.26247221 221.46865383 837.37709427 221.76694489 C840.19274957 222.52447128 842.97274496 223.30959988 845.73974609 224.23193359 C845.76889486 307.49396223 845.78905739 390.75599162 845.80160284 486.63253558 C845.8020292 489.98391648 845.80246322 493.33529739 845.80290461 496.68667829 C845.81382692 579.70458743 845.81749202 662.7225055 845.24876755 1048.05304414 C845.23970725 1051.37115827 845.23067413 1054.68927247 845.22164392 1058.00738668 C845.07521285 1111.7489467 844.91662054 1165.49046496 844.73974609 1219.23193359 C842.34392638 1220.35237385 839.94786026 1221.47228183 837.551651 1222.59188843 C836.5412286 1223.064527 836.5412286 1223.064527 835.51039362 1223.54671383 C830.48752496 1225.89287936 825.44118816 1228.17680821 820.36083984 1230.39599609 C819.15065941 1230.92711502 819.15065941 1230.92711502 817.91603088 1231.46896362 C815.33722252 1232.60009179 812.75727973 1233.72860336 810.17724609 1234.85693359 C808.34843228 1235.6582797 806.51965679 1236.45971326 804.69091797 1237.26123047 C793.20971762 1242.29036517 781.7144829 1247.28622982 770.20825195 1252.2578125 C759.53404263 1256.87489152 748.88611877 1261.5510814 738.23974609 1266.23193359 C725.18802473 1271.96990525 712.12571851 1277.68100135 699.03979492 1283.34057617 C688.9956959 1287.68511991 678.95936335 1292.04729201 668.92724609 1296.41943359 C668.11295135 1296.7742984 667.29865662 1297.12916321 666.45968628 1297.49478149 C652.64631639 1303.51608997 638.84806772 1309.57153242 625.05331421 1315.63534546 C613.11877533 1320.88075484 601.16960308 1326.08979785 589.20239258 1331.26025391 C578.53022599 1335.87672373 567.88413326 1340.5518225 557.23974609 1345.23193359 C544.24417293 1350.94581126 531.23656484 1356.62888815 518.20458984 1362.25927734 C507.53171558 1366.87613018 496.8848672 1371.5514998 486.23974609 1376.23193359 C473.24417293 1381.94581126 460.23656484 1387.62888815 447.20458984 1393.25927734 C436.53171477 1397.87613053 425.88491631 1402.55161008 415.23974609 1407.23193359 C402.18802473 1412.96990525 389.12571851 1418.68100135 376.03979492 1424.34057617 C365.9956959 1428.68511991 355.95936335 1433.04729201 345.92724609 1437.41943359 C345.11295135 1437.7742984 344.29865662 1438.12916321 343.45968628 1438.49478149 C330.52214205 1444.13431373 317.59767853 1449.80332639 304.67724609 1455.48193359 C293.38079541 1460.44631381 282.08205714 1465.40493812 270.76065063 1470.31219482 C268.95674674 1471.09414574 267.15329625 1471.87714235 265.34985352 1472.66015625 C259.83241421 1475.05019203 254.30780474 1477.42061592 248.7624054 1479.7449646 C246.13273668 1480.84742947 243.505567 1481.95578956 240.87832642 1483.06402588 C239.03575735 1483.83761608 237.18894338 1484.60107093 235.34204102 1485.36425781 C234.24093994 1485.82848145 233.13983887 1486.29270508 232.00537109 1486.77099609 C231.03374023 1487.17527832 230.06210937 1487.57956055 229.06103516 1487.99609375 C226.45243336 1489.14965055 226.45243336 1489.14965055 224.73974609 1492.23193359 C222.90200119 1491.81115036 222.90200119 1491.81115036 221.02713013 1491.38186646 C164.12349589 1478.35310898 107.21801109 1465.33261357 50.30224609 1452.35693359 C47.96163938 1451.82331351 45.62103269 1451.28969331 43.28042603 1450.756073 C42.11425153 1450.49020543 40.94807703 1450.22433786 39.74656391 1449.9504137 C33.80157794 1448.59505698 27.856597 1447.23967819 21.91162109 1445.88427734 C20.72763922 1445.61434401 19.54365734 1445.34441067 18.32379723 1445.06629753 C-11.10161038 1438.35749711 -40.52478913 1431.63893748 -69.94775391 1424.91943359 C-70.60714683 1424.76884428 -71.26653975 1424.61825497 -71.94591427 1424.46310234 C-83.31205824 1421.86734791 -94.67819395 1419.27155734 -106.04430771 1416.67567062 C-124.81973129 1412.38758714 -143.59539322 1408.10054896 -162.37126541 1403.81443024 C-174.35513407 1401.07876955 -186.33895583 1398.34290346 -198.32275391 1395.60693359 C-198.98011127 1395.45685569 -199.63746862 1395.30677778 -200.3147459 1395.15215206 C-239.34349028 1386.24165638 -278.36950803 1377.31930218 -317.39319611 1368.38668442 C-355.73770405 1359.6096261 -394.08440921 1350.84229731 -432.43581772 1342.0954361 C-435.92326561 1341.30001889 -439.41068666 1340.50448408 -442.89810181 1339.70892334 C-468.96585744 1333.76250273 -495.0359133 1327.82631072 -521.10944134 1321.905258 C-526.18638529 1320.75230101 -531.26323075 1319.59891117 -536.3400116 1318.44523621 C-537.04983804 1318.28393422 -537.75966449 1318.12263223 -538.49100083 1317.9564423 C-541.3407725 1317.30884952 -544.19054208 1316.66124756 -547.0402993 1316.01359117 C-555.39875284 1314.11401065 -563.75757818 1312.21608603 -572.11704963 1310.32098985 C-577.9278958 1309.00353027 -583.73815043 1307.68347567 -589.54819298 1306.36247635 C-591.94477361 1305.81806015 -594.34156204 1305.27455782 -596.73856544 1304.73200607 C-600.01000774 1303.99141968 -603.28072141 1303.24769746 -606.55126953 1302.50317383 C-607.51540614 1302.28573045 -608.47954275 1302.06828707 -609.47289562 1301.84425449 C-610.34555223 1301.64492282 -611.21820883 1301.44559114 -612.11730957 1301.24021912 C-613.25301266 1300.98253329 -613.25301266 1300.98253329 -614.41165924 1300.71964169 C-616.26025391 1300.23193359 -616.26025391 1300.23193359 -618.26025391 1299.23193359 C-618.84035207 1209.35998628 -619.22289446 1119.48690475 -619.49770355 757.02336693 C-619.49793226 754.80960064 -619.49816159 752.59583436 -619.49839154 750.38206808 C-619.49850522 749.2850395 -619.4986189 748.18801093 -619.49873602 747.05773906 C-619.49919791 742.61762601 -619.49966516 738.17751297 -619.50013684 733.73739992 C-619.50037116 731.51396346 -619.50060084 729.29052699 -619.50082589 727.06709053 C-619.50453693 690.82427123 -619.52071346 654.58147124 -619.54367865 618.33865937 C-619.56823186 579.51722668 -619.58199002 540.69580512 -619.58318973 501.87436444 C-619.5833611 497.6321402 -619.58357649 493.38991596 -619.58382416 489.14769173 C-619.58387993 488.104033 -619.5839357 487.06037428 -619.58399315 485.98508953 C-619.58513937 469.26076758 -619.59611141 452.53646619 -619.61071121 435.81215118 C-619.62500779 419.15457236 -619.62834962 402.49702003 -619.62027124 385.83943676 C-619.61580306 375.96307454 -619.61972651 366.08679772 -619.63550974 356.21044664 C-619.64520572 349.63111149 -619.64413402 343.05183668 -619.63407351 336.47250218 C-619.62864768 332.72097709 -619.62808012 328.9696171 -619.64058223 325.21810525 C-619.65389401 321.19089483 -619.6442975 317.1640767 -619.6321907 313.13686275 C-619.6397859 311.95944949 -619.64738109 310.78203622 -619.65520644 309.56894377 C-619.64820834 308.50337284 -619.64121023 307.43780192 -619.63400006 306.33994097 C-619.63424427 305.41880824 -619.63448847 304.49767551 -619.63474007 303.54862967 C-619.18298189 300.75390318 -618.47026061 299.943409 -616.26025391 298.23193359 C-614.19881994 297.07156112 -612.09841772 295.97969739 -609.97900391 294.92895508 C-609.34584259 294.61295853 -608.71268127 294.29696198 -608.06033325 293.97138977 C-605.96303905 292.92633843 -603.86166043 291.88978124 -601.76025391 290.85302734 C-600.28518941 290.11957063 -598.81042213 289.3855159 -597.3359375 288.65089417 C-593.43968313 286.71133541 -589.54007229 284.77862824 -585.63952637 282.84771729 C-579.45444316 279.78468739 -573.27419784 276.71191983 -567.09448242 273.63807869 C-564.96533985 272.58031428 -562.83462001 271.52578909 -560.70361328 270.4717865 C-554.49773392 267.39485344 -548.31801879 264.28135019 -542.20381546 261.0254364 C-529.30393109 254.162395 -516.22821951 247.65079103 -503.15423393 241.12822032 C-499.69602671 239.40235363 -496.23901853 237.67408805 -492.78186035 235.94612122 C-486.81056697 232.961907 -480.83856797 229.97910909 -474.86608887 226.99726868 C-466.21037178 222.67573784 -457.55598678 218.35154468 -448.90194368 214.02666277 C-434.82807587 206.99325001 -420.75346125 199.96133319 -406.67822266 192.93066406 C-405.41884156 192.30159437 -405.41884156 192.30159437 -404.13401842 191.65981621 C-397.32371752 188.2580373 -390.51338006 184.85633159 -383.70304108 181.45462894 C-377.74943867 178.48085458 -371.79585087 175.50705095 -365.84228516 172.53320312 C-365.00373883 172.11434402 -364.1651925 171.69548492 -363.30123568 171.26393312 C-349.27297949 164.25667002 -335.24552231 157.24780885 -321.21862411 150.23782778 C-312.5957515 145.92861892 -303.9721757 141.62082343 -295.34765434 137.3149153 C-289.4315905 134.36112634 -283.51625561 131.40588104 -277.60146904 128.44953525 C-274.20110161 126.75001754 -270.80041973 125.05113777 -267.39881897 123.35408974 C-255.22633277 117.28081362 -243.06883236 111.19068071 -231.05158865 104.81399316 C-221.81967416 99.92051101 -212.48395928 95.23362223 -203.15234375 90.53393555 C-201.11486548 89.5063065 -199.07743193 88.47858878 -197.04003906 87.45079041 C-178.63974878 78.17197008 -160.22506197 68.92168901 -141.80657005 59.67905903 C-139.35571456 58.44910898 -136.90489235 57.21909265 -134.45410156 55.98901367 C-133.54068774 55.53056682 -133.54068774 55.53056682 -132.60882111 55.06285843 C-122.70270841 50.0903345 -112.80507769 45.10115197 -102.91052954 40.10566328 C-92.71292519 34.95758616 -82.50691015 29.82657254 -72.29316866 24.71056908 C-66.57371347 21.84511012 -60.85827777 18.97222761 -55.1518364 16.0809269 C-49.79805779 13.36867703 -44.43430113 10.6773058 -39.06214905 8.00164223 C-37.09471245 7.01720931 -35.13102748 6.02523683 -33.17148209 5.02518845 C-30.49445258 3.6603998 -27.80518827 2.32350377 -25.11117554 0.99263 C-24.34103414 0.59187974 -23.57089274 0.19112947 -22.77741373 -0.22176474 C-14.85929962 -4.05882227 -8.24488844 -2.20792862 0 0 Z " fill="#9B642E" transform="translate(619.26025390625,3.76806640625)"/>
<path d="M0 0 C0.67309582 0.17830384 1.34619164 0.35660769 2.0396843 0.54031467 C4.2669065 1.13192717 6.49154585 1.73270706 8.71630859 2.33349609 C10.32370538 2.76233432 11.93126413 3.19056588 13.53897095 3.61824036 C16.99659083 4.5392932 20.45310729 5.46434079 23.90881348 6.39254761 C29.45975783 7.88342946 35.01310583 9.36521311 40.56689453 10.84545898 C46.39789714 12.39998553 52.22876267 13.9550142 58.05883789 15.51301575 C76.56741669 20.45884014 95.08801581 25.35866723 113.61126709 30.24920654 C119.03860221 31.68218938 124.46562844 33.11633947 129.89257812 34.55078125 C131.24720689 34.90883221 131.24720689 34.90883221 132.62920189 35.27411652 C134.45559759 35.75686648 136.28199263 36.23961896 138.10838699 36.72237396 C141.75997647 37.68752551 145.41160674 38.65252266 149.06323814 39.61751556 C160.87746768 42.73958979 172.69146763 45.86253201 184.50537109 48.98583984 C185.40209282 49.2229109 186.29881454 49.45998196 187.22270966 49.70423698 C191.75056729 50.90129463 196.2784216 52.09836483 200.80627441 53.29544067 C208.96107888 55.45140527 217.11591279 57.60725847 225.27074432 59.76312065 C229.80207944 60.96105379 234.33341267 62.15899405 238.86474609 63.35693359 C240.67724608 63.83610029 242.48974608 64.31526696 244.30224609 64.79443359 C247.92724609 65.75276693 251.55224609 66.71110026 255.17724609 67.66943359 C256.07442887 67.90661983 256.97161165 68.14380608 257.89598179 68.38817978 C259.70852949 68.86735908 261.52107718 69.34653846 263.33362484 69.82571793 C267.86414477 71.02344197 272.39466508 72.22116459 276.92518616 73.41888428 C285.09015446 75.57743289 293.25512009 77.73599161 301.4200716 79.89460373 C305.96282581 81.09559575 310.50558224 82.2965794 315.04833984 83.49755859 C315.94734953 83.73523201 316.84635921 83.97290543 317.77261162 84.21778107 C330.28617661 87.52600573 342.79986348 90.83376903 355.31363297 94.14122009 C396.20976168 104.95035647 437.10365615 115.76789571 477.99533844 126.59384155 C508.72126705 134.72840665 539.44821115 142.8591104 570.17724609 150.98193359 C571.0638026 151.21628616 571.95035912 151.45063873 572.86378098 151.6920929 C586.15569142 155.20566796 599.44770598 158.7188491 612.73974609 162.23193359 C640.72387804 169.62813606 668.70768188 177.02557741 696.69078827 184.42565918 C699.85034847 185.26118158 703.00992042 186.09665948 706.16949463 186.93212891 C718.63170822 190.22748659 731.09375778 193.52346332 743.55549717 196.82061386 C749.04814691 198.27386388 754.54085094 199.7269077 760.03372192 201.17932129 C781.71685879 206.91295344 803.39597006 212.6610612 825.06005859 218.46630859 C825.94747616 218.70383095 826.83489372 218.9413533 827.74920273 219.1860733 C830.22304907 219.84845823 832.69654822 220.51212204 835.16992188 221.17626953 C836.26247221 221.46865383 836.26247221 221.46865383 837.37709427 221.76694489 C840.19274957 222.52447128 842.97274496 223.30959988 845.73974609 224.23193359 C845.73974609 285.94193359 845.73974609 347.65193359 845.73974609 411.23193359 C808.73974609 427.23193359 808.73974609 427.23193359 806.73974609 427.23193359 C806.73974609 407.10193359 806.73974609 386.97193359 806.73974609 366.23193359 C797.27021122 370.37082224 797.27021122 370.37082224 787.80444336 374.51831055 C786.60875732 375.03868896 785.41307129 375.55906738 784.18115234 376.09521484 C783.57944214 376.3605603 782.97773193 376.62590576 782.35778809 376.89929199 C777.52687628 378.99355131 772.79034408 380.54840093 767.73974609 382.23193359 C767.73974609 403.02193359 767.73974609 423.81193359 767.73974609 445.23193359 C727.26273472 463.05287034 727.26273472 463.05287034 709.09805298 470.86862183 C707.56869035 471.52699039 706.03985958 472.18659586 704.51156616 472.84744263 C702.39257307 473.76314507 700.27159452 474.67406834 698.14990234 475.58349609 C696.95502197 476.09734863 695.7601416 476.61120117 694.52905273 477.140625 C691.73974609 478.23193359 691.73974609 478.23193359 689.73974609 478.23193359 C689.73974609 499.02193359 689.73974609 519.81193359 689.73974609 541.23193359 C683.86162109 543.87193359 677.98349609 546.51193359 671.92724609 549.23193359 C669.14903442 550.48490234 669.14903442 550.48490234 666.31469727 551.76318359 C664.84590079 552.41987588 663.37691917 553.07615429 661.90771484 553.73193359 C661.14575806 554.07740234 660.38380127 554.42287109 659.59875488 554.77880859 C654.0819615 557.23193359 654.0819615 557.23193359 650.73974609 557.23193359 C650.73974609 496.18193359 650.73974609 435.13193359 650.73974609 372.23193359 C640.83974609 376.52193359 630.93974609 380.81193359 620.73974609 385.23193359 C616.28474609 386.71693359 616.28474609 386.71693359 611.73974609 388.23193359 C611.73974609 429.48193359 611.73974609 470.73193359 611.73974609 513.23193359 C575.73974609 529.23193359 575.73974609 529.23193359 573.73974609 529.23193359 C573.40974609 509.10193359 573.07974609 488.97193359 572.73974609 468.23193359 C560.52974609 473.51193359 548.31974609 478.79193359 535.73974609 484.23193359 C535.40974609 525.48193359 535.07974609 566.73193359 534.73974609 609.23193359 C504.73974609 622.23193359 504.73974609 622.23193359 495.73974609 625.23193359 C495.40974609 605.10193359 495.07974609 584.97193359 494.73974609 564.23193359 C485.59897547 568.37022914 485.59897547 568.37022914 476.46264648 572.51831055 C475.30756592 573.03868896 474.15248535 573.55906738 472.96240234 574.09521484 C471.79459229 574.6241333 470.62678223 575.15305176 469.42358398 575.69799805 C465.27862284 577.4239435 460.99928028 578.81208886 456.73974609 580.23193359 C456.73974609 601.02193359 456.73974609 621.81193359 456.73974609 643.23193359 C447.64412109 647.19193359 447.64412109 647.19193359 438.36474609 651.23193359 C435.49456787 652.48490234 435.49456787 652.48490234 432.56640625 653.76318359 C431.05399914 654.41972263 429.54147463 655.07599133 428.02880859 655.73193359 C426.84581177 656.25013672 426.84581177 656.25013672 425.63891602 656.77880859 C419.96788969 659.23193359 419.96788969 659.23193359 417.73974609 659.23193359 C417.40974609 639.10193359 417.07974609 618.97193359 416.73974609 598.23193359 C407.59897547 602.37022914 407.59897547 602.37022914 398.46264648 606.51831055 C397.30756592 607.03868896 396.15248535 607.55906738 394.96240234 608.09521484 C393.79459229 608.6241333 392.62678223 609.15305176 391.42358398 609.69799805 C387.27862284 611.4239435 382.99928028 612.81208886 378.73974609 614.23193359 C378.40974609 594.10193359 378.07974609 573.97193359 377.73974609 553.23193359 C365.98036443 558.49351259 365.98036443 558.49351259 354.22460938 563.76318359 C352.7532238 564.41972805 351.28171529 565.0759971 349.81005859 565.73193359 C349.04298584 566.07740234 348.27591309 566.42287109 347.4855957 566.77880859 C341.96788969 569.23193359 341.96788969 569.23193359 339.73974609 569.23193359 C339.73974609 590.02193359 339.73974609 610.81193359 339.73974609 632.23193359 C335.59412109 634.02630859 331.44849609 635.82068359 327.17724609 637.66943359 C317.89275805 641.68834394 308.61422787 645.72041376 299.34521484 649.77490234 C297.58749089 650.54322928 295.82975979 651.31153988 294.07202148 652.07983398 C291.48169687 653.2121171 288.89169752 654.34511488 286.30270386 655.48043823 C283.86845429 656.54787663 281.43310363 657.61276755 278.99755859 658.67724609 C278.28089523 658.9923967 277.56423187 659.3075473 276.82585144 659.63224792 C276.141465 659.9308522 275.45707855 660.22945648 274.75195312 660.53710938 C274.16737335 660.79324005 273.58279358 661.04937073 272.98049927 661.31326294 C269.59871456 662.6997371 266.16199765 663.94858926 262.73974609 665.23193359 C262.73974609 644.77193359 262.73974609 624.31193359 262.73974609 603.23193359 C254.81974609 606.86193359 246.89974609 610.49193359 238.73974609 614.23193359 C228.61474609 618.38037109 228.61474609 618.38037109 223.73974609 620.23193359 C223.73974609 619.57193359 223.73974609 618.91193359 223.73974609 618.23193359 C222.08168945 618.05513062 222.08168945 618.05513062 220.39013672 617.87475586 C215.29082695 617.23482465 210.33606061 616.10675697 205.33349609 614.94677734 C204.4765918 614.75120239 203.6196875 614.55562744 202.73681641 614.35412598 C199.57014306 613.63018272 196.40503254 612.89941689 193.23974609 612.16943359 C186.14474609 610.54005859 179.04974609 608.91068359 171.73974609 607.23193359 C171.73974609 627.69193359 171.73974609 648.15193359 171.73974609 669.23193359 C147.29559868 663.849736 122.88862808 658.31478389 98.48974609 652.73193359 C97.68351555 652.54745667 96.877285 652.36297974 96.04662323 652.1729126 C85.94390948 649.8610895 75.8417754 647.54674787 65.73974609 645.23193359 C65.73974609 624.44193359 65.73974609 603.65193359 65.73974609 582.23193359 C63.09974609 581.90193359 60.45974609 581.57193359 57.73974609 581.23193359 C56.08477042 580.91765897 54.43429368 580.57748377 52.79248047 580.20043945 C51.90012695 579.99753296 51.00777344 579.79462646 50.08837891 579.58557129 C49.17926758 579.37476929 48.27015625 579.16396729 47.33349609 578.94677734 C46.4765918 578.75120239 45.6196875 578.55562744 44.73681641 578.35412598 C41.57014306 577.63018272 38.40503254 576.89941689 35.23974609 576.16943359 C28.14474609 574.54005859 21.04974609 572.91068359 13.73974609 571.23193359 C13.73974609 591.69193359 13.73974609 612.15193359 13.73974609 633.23193359 C5.73724609 631.43755859 -2.26525391 629.64318359 -10.51025391 627.79443359 C-13.03198242 627.22926025 -15.55371094 626.66408691 -18.15185547 626.08178711 C-20.15153862 625.63317668 -22.15121366 625.18453006 -24.15087891 624.73583984 C-25.18841309 624.50344604 -26.22594727 624.27105225 -27.29492188 624.03161621 C-28.28927246 623.80840698 -29.28362305 623.58519775 -30.30810547 623.35522461 C-31.16970276 623.1620314 -32.03130005 622.9688382 -32.91900635 622.76979065 C-35.0388083 622.28280651 -37.15017415 621.75945353 -39.26025391 621.23193359 C-39.26025391 641.69193359 -39.26025391 662.15193359 -39.26025391 683.23193359 C-50.44894431 680.87641982 -61.62420451 678.52126793 -72.7734375 675.99438477 C-74.81672751 675.53164411 -76.8607297 675.07213939 -78.90478516 674.61279297 C-80.22123384 674.31545474 -81.53764182 674.01793623 -82.85400391 673.72021484 C-84.01609375 673.45764893 -85.17818359 673.19508301 -86.37548828 672.92456055 C-89.26025391 672.23193359 -89.26025391 672.23193359 -92.26025391 671.23193359 C-92.26025391 650.44193359 -92.26025391 629.65193359 -92.26025391 608.23193359 C-95.23025391 607.90193359 -98.20025391 607.57193359 -101.26025391 607.23193359 C-102.92392565 606.92558414 -104.58276797 606.58871386 -106.22924805 606.20043945 C-107.10117798 605.99753296 -107.97310791 605.79462646 -108.87145996 605.58557129 C-109.75386353 605.37476929 -110.63626709 605.16396729 -111.54541016 604.94677734 C-112.38164917 604.75120239 -113.21788818 604.55562744 -114.07946777 604.35412598 C-117.16191049 603.63161943 -120.24221398 602.90001048 -123.32275391 602.16943359 C-130.23212891 600.54005859 -137.14150391 598.91068359 -144.26025391 597.23193359 C-144.26025391 617.69193359 -144.26025391 638.15193359 -144.26025391 659.23193359 C-162.02233298 655.67951778 -179.65631896 651.49955419 -197.26025391 647.23193359 C-197.26025391 605.98193359 -197.26025391 564.73193359 -197.26025391 522.23193359 C-201.22025391 521.57193359 -205.18025391 520.91193359 -209.26025391 520.23193359 C-212.48262902 519.55122007 -215.68740628 518.85211157 -218.89306641 518.10302734 C-219.73698944 517.90846451 -220.58091248 517.71390167 -221.45040894 517.51344299 C-223.20676779 517.10764737 -224.96271912 516.70008394 -226.71826172 516.29077148 C-229.41346676 515.66286075 -232.11017853 515.04175356 -234.80712891 514.42138672 C-236.52336651 514.0239964 -238.23951576 513.62622425 -239.95556641 513.22802734 C-241.16323166 512.94988441 -241.16323166 512.94988441 -242.39529419 512.66612244 C-248.0292569 511.3474321 -248.0292569 511.3474321 -250.26025391 510.23193359 C-250.26025391 530.69193359 -250.26025391 551.15193359 -250.26025391 572.23193359 C-267.86880227 570.27542822 -285.00384166 565.24505272 -302.26025391 561.23193359 C-302.26025391 519.98193359 -302.26025391 478.73193359 -302.26025391 436.23193359 C-311.66525391 434.25193359 -311.66525391 434.25193359 -321.26025391 432.23193359 C-326.10041663 431.16151299 -330.93911662 430.09004436 -335.7734375 428.99438477 C-337.81672751 428.53164411 -339.8607297 428.07213939 -341.90478516 427.61279297 C-343.22123384 427.31545474 -344.53764182 427.01793623 -345.85400391 426.72021484 C-347.59713867 426.32636597 -347.59713867 426.32636597 -349.37548828 425.92456055 C-352.26025391 425.23193359 -352.26025391 425.23193359 -355.26025391 424.23193359 C-355.26025391 485.94193359 -355.26025391 547.65193359 -355.26025391 611.23193359 C-391.26025391 603.23193359 -391.26025391 603.23193359 -408.26025391 599.23193359 C-408.26025391 578.44193359 -408.26025391 557.65193359 -408.26025391 536.23193359 C-410.90025391 535.90193359 -413.54025391 535.57193359 -416.26025391 535.23193359 C-418.02598787 534.89363379 -419.78670639 534.52720624 -421.53901672 534.12512207 C-422.51007544 533.90433865 -423.48113415 533.68355522 -424.48161888 533.45608139 C-425.52272127 533.21517902 -426.56382366 532.97427666 -427.63647461 532.72607422 C-428.75721689 532.47007572 -429.87795918 532.21407722 -431.03266335 531.9503212 C-434.7513093 531.09996386 -438.46865417 530.24405237 -442.18603516 529.38818359 C-444.82041452 528.78427356 -447.45507699 528.18160303 -450.08973694 527.57891846 C-455.68504468 526.2983573 -461.27972913 525.01510507 -466.8739624 523.7298584 C-475.56720698 521.73264935 -484.26149102 519.73999301 -492.95605469 517.74853516 C-494.03178238 517.50213814 -494.03178238 517.50213814 -495.12924194 517.25076342 C-498.02106288 516.58839411 -500.91288556 515.92603246 -503.80472231 515.26373219 C-508.12812402 514.27354546 -512.45142434 513.28291743 -516.77465296 512.29197526 C-533.95268248 508.35476652 -551.13498597 504.43734581 -568.32666016 500.56005859 C-570.13977593 500.15088041 -571.95289138 499.74170076 -573.76600647 499.33251953 C-581.07328677 497.6840485 -588.3811602 496.03829869 -595.69070721 494.39990616 C-598.54650054 493.75908571 -601.40165874 493.11547155 -604.25665092 492.47109222 C-606.15553283 492.04359053 -608.05529881 491.62002161 -609.95509338 491.19659424 C-611.59960732 490.82495148 -611.59960732 490.82495148 -613.27734375 490.44580078 C-614.22443207 490.23348816 -615.17152039 490.02117554 -616.14730835 489.8024292 C-618.26025391 489.23193359 -618.26025391 489.23193359 -619.26025391 488.23193359 C-619.36456901 485.82294142 -619.40358518 483.44237166 -619.4006958 481.03262329 C-619.40515248 479.88908026 -619.40515248 479.88908026 -619.4096992 478.72243536 C-619.41842394 476.14827935 -619.41989761 473.57416965 -619.42138672 471 C-619.42601222 469.16237793 -619.43103651 467.32475682 -619.43643188 465.48713684 C-619.44958354 460.48095631 -619.45600619 455.4747892 -619.46044254 450.46859407 C-619.46336875 447.34433974 -619.46747267 444.22008911 -619.47194672 441.09583664 C-619.48562877 431.33067899 -619.49529202 421.56552976 -619.49914861 411.80036318 C-619.50363162 400.50948922 -619.52118782 389.21873618 -619.5501492 377.927899 C-619.57173139 369.21282724 -619.58185103 360.49778958 -619.58318973 351.78269136 C-619.58424022 346.57181241 -619.59019977 341.36104701 -619.60800934 336.15019608 C-619.62443034 331.25008111 -619.62667474 326.35016578 -619.61787033 321.45003319 C-619.61709675 319.64844798 -619.6214847 317.84685229 -619.63132858 316.04529381 C-619.6439522 313.59169179 -619.63822418 311.13880716 -619.62774658 308.68521118 C-619.63580299 307.96702449 -619.64385939 307.24883781 -619.65215993 306.50888789 C-619.6039908 301.70829745 -619.6039908 301.70829745 -617.91318893 299.36511898 C-615.38067391 297.62892913 -612.73005059 296.29284217 -609.97900391 294.92895508 C-609.34584259 294.61295853 -608.71268127 294.29696198 -608.06033325 293.97138977 C-605.96303905 292.92633843 -603.86166043 291.88978124 -601.76025391 290.85302734 C-600.28518941 290.11957063 -598.81042213 289.3855159 -597.3359375 288.65089417 C-593.43968313 286.71133541 -589.54007229 284.77862824 -585.63952637 282.84771729 C-579.45444316 279.78468739 -573.27419784 276.71191983 -567.09448242 273.63807869 C-564.96533985 272.58031428 -562.83462001 271.52578909 -560.70361328 270.4717865 C-554.49773392 267.39485344 -548.31801879 264.28135019 -542.20381546 261.0254364 C-529.30393109 254.162395 -516.22821951 247.65079103 -503.15423393 241.12822032 C-499.69602671 239.40235363 -496.23901853 237.67408805 -492.78186035 235.94612122 C-486.81056697 232.961907 -480.83856797 229.97910909 -474.86608887 226.99726868 C-466.21037178 222.67573784 -457.55598678 218.35154468 -448.90194368 214.02666277 C-434.82807587 206.99325001 -420.75346125 199.96133319 -406.67822266 192.93066406 C-405.41884156 192.30159437 -405.41884156 192.30159437 -404.13401842 191.65981621 C-397.32371752 188.2580373 -390.51338006 184.85633159 -383.70304108 181.45462894 C-377.74943867 178.48085458 -371.79585087 175.50705095 -365.84228516 172.53320312 C-365.00373883 172.11434402 -364.1651925 171.69548492 -363.30123568 171.26393312 C-349.27297949 164.25667002 -335.24552231 157.24780885 -321.21862411 150.23782778 C-312.5957515 145.92861892 -303.9721757 141.62082343 -295.34765434 137.3149153 C-289.4315905 134.36112634 -283.51625561 131.40588104 -277.60146904 128.44953525 C-274.20110161 126.75001754 -270.80041973 125.05113777 -267.39881897 123.35408974 C-255.22633277 117.28081362 -243.06883236 111.19068071 -231.05158865 104.81399316 C-221.81967416 99.92051101 -212.48395928 95.23362223 -203.15234375 90.53393555 C-201.11486548 89.5063065 -199.07743193 88.47858878 -197.04003906 87.45079041 C-178.63974878 78.17197008 -160.22506197 68.92168901 -141.80657005 59.67905903 C-139.35571456 58.44910898 -136.90489235 57.21909265 -134.45410156 55.98901367 C-133.54068774 55.53056682 -133.54068774 55.53056682 -132.60882111 55.06285843 C-122.70270841 50.0903345 -112.80507769 45.10115197 -102.91052954 40.10566328 C-92.71292519 34.95758616 -82.50691015 29.82657254 -72.29316866 24.71056908 C-66.57371347 21.84511012 -60.85827777 18.97222761 -55.1518364 16.0809269 C-49.79805779 13.36867703 -44.43430113 10.6773058 -39.06214905 8.00164223 C-37.09471245 7.01720931 -35.13102748 6.02523683 -33.17148209 5.02518845 C-30.49445258 3.6603998 -27.80518827 2.32350377 -25.11117554 0.99263 C-24.34103414 0.59187974 -23.57089274 0.19112947 -22.77741373 -0.22176474 C-14.85929962 -4.05882227 -8.24488844 -2.20792862 0 0 Z " fill="#78AC30" transform="translate(619.26025390625,3.76806640625)"/>
<path d="M0 0 C2.41251666 0.67141633 4.83187287 1.30594261 7.25712395 1.92967606 C12.61985921 3.31141091 17.97126902 4.73428786 23.32281303 6.15864944 C25.34573092 6.69515402 27.36870719 7.23143846 29.39173698 7.7675209 C33.69625998 8.90863276 38.00039874 10.05117816 42.30422783 11.19490433 C49.1458109 13.01299985 55.98826419 14.82780467 62.83086967 16.64204788 C69.86414608 18.50698876 76.89737665 20.37210116 83.9303112 22.23833084 C103.80648799 27.51252045 123.68646364 32.77225309 143.56814384 38.02565384 C148.84656367 39.42039648 154.12486235 40.81559718 159.4031353 42.21089554 C174.97545895 46.32733617 190.54799437 50.44297528 206.12065983 54.55812263 C214.04012757 56.65089141 221.95953562 58.74388594 229.87890911 60.83701134 C234.56905214 62.07661967 239.25922791 63.31610378 243.9494915 64.55525589 C265.44301722 70.23381664 286.93187148 75.92913448 308.40875053 81.67036819 C305.57331251 83.8405778 302.83282485 85.57634949 299.62750053 87.15864944 C298.23918022 87.84797562 298.23918022 87.84797562 296.82281303 88.55122757 C295.86117241 89.02366898 294.89953178 89.49611038 293.90875053 89.98286819 C292.02332383 90.91644167 290.13790722 91.85003553 288.25250053 92.78364944 C287.34141029 93.21924683 286.43032005 93.65484421 285.49162102 94.10364151 C282.42447712 95.59777459 282.42447712 95.59777459 279.74934196 97.37601089 C273.92245385 100.91672123 269.99925783 102.16534469 263.23858452 100.80464554 C260.5198267 100.11297104 257.84063073 99.31523935 255.15484428 98.50630569 C253.65406972 98.08952101 252.15217606 97.67674874 250.64929008 97.26764297 C247.4103602 96.37741648 244.18048595 95.46100915 240.95498466 94.52330399 C235.73572765 93.00670893 230.50060368 91.55112905 225.26153374 90.10469437 C219.69456575 88.56489396 214.1288144 87.02126091 208.56846428 85.45770645 C195.53997945 81.79525258 182.48334224 78.25783625 169.39312553 74.82271194 C168.48176527 74.58351658 167.57040501 74.34432121 166.63142776 74.0978775 C161.99303705 72.88126875 157.35403648 71.66700451 152.71475029 70.45381546 C144.17203743 68.21889126 135.63409558 65.96585792 127.09601212 63.7133255 C124.18655641 62.94577282 121.27700526 62.17858276 118.36744499 61.41142654 C95.24953897 55.31460278 72.14163973 49.1800256 49.03375053 43.04536819 C47.99431423 42.76942196 46.95487793 42.49347572 45.88394356 42.20916748 C43.80590455 41.65749246 41.72786632 41.10581446 39.64982891 40.55413342 C34.61635459 39.21784015 29.58286978 37.8815864 24.54937553 36.54536819 C23.09878274 36.16027431 23.09878274 36.16027431 21.61888504 35.76740074 C-2.44524372 29.37931288 -26.51609452 23.0167765 -50.59124947 16.67036819 C-45.87142342 11.43343119 -39.70786914 8.53877012 -33.55145454 5.31294632 C-32.13170019 4.55763765 -30.72267143 3.7817752 -29.32586861 2.98482132 C-27.27786064 1.81827443 -25.20247843 0.72497382 -23.11078072 -0.36088181 C-22.51110985 -0.7189592 -21.91143898 -1.07703659 -21.29359627 -1.44596481 C-14.29351085 -4.88442559 -7.06800917 -1.97948189 0 0 Z " fill="#91BA59" transform="translate(859.5912494659424,212.32963180541992)"/>
<path d="M0 0 C1.83213298 0.54476698 3.66622542 1.08298164 5.50209045 1.61503601 C9.26601219 2.71158236 13.01992116 3.83558201 16.76907349 4.98156738 C24.25637982 7.24931401 31.82431003 9.18523743 39.40341568 11.11847878 C43.46833002 12.15938524 47.52637887 13.22642152 51.58520508 14.29077148 C53.24498033 14.72502015 54.9047808 15.15917242 56.56460571 15.5932312 C92.02445662 24.870381 127.46378993 34.22284462 162.8901062 43.62716675 C164.16518854 43.96564951 164.16518854 43.96564951 165.46603012 44.31097031 C167.18640525 44.76766933 168.90677523 45.22438777 170.62714005 45.68112564 C184.71251435 49.42041405 198.80083404 53.14848406 212.890625 56.87109375 C213.87477575 57.13113253 214.85892651 57.3911713 215.87290001 57.65909004 C224.53475745 59.94774857 233.19669123 62.23611778 241.85903931 64.5229187 C262.00253462 69.84073457 282.14134714 75.17265547 302.25 80.62109375 C299.47415998 83.55909317 296.68386782 85.07619944 293.04296875 86.87109375 C292.43995438 87.17047852 291.83694 87.46986328 291.21565247 87.77832031 C289.29235575 88.73160476 287.36506273 89.67646993 285.4375 90.62109375 C284.15271932 91.25595323 282.8682111 91.89136444 281.58398438 92.52734375 C279.20892903 93.70266362 276.83209689 94.87407592 274.45385742 96.04296875 C271.27378584 97.55549904 271.27378584 97.55549904 268.45411682 99.2931366 C264.51363007 100.92628478 262.85890458 100.55138558 258.78027344 99.4465332 C258.15427655 99.28331227 257.52827967 99.12009134 256.88331318 98.95192432 C254.7860444 98.39957894 252.69841233 97.81701656 250.609375 97.234375 C249.09599966 96.82931551 247.58210256 96.4262012 246.06773376 96.02487183 C242.78142377 95.14953272 239.49916866 94.26069962 236.21932983 93.36141968 C230.90546243 91.90456538 225.58389947 90.47734625 220.26098633 89.05395508 C212.58653849 86.9990558 204.91568106 84.93120995 197.24658203 82.85644531 C185.28760495 79.62319365 173.31556187 76.44013553 161.33984375 73.26953125 C160.34234667 73.0053861 159.34484959 72.74124096 158.31712532 72.46909142 C154.25934266 71.39461476 150.20152026 70.32028856 146.1435976 69.24634075 C138.9425348 67.340347 131.74256171 65.43027937 124.54321289 63.51782227 C123.00383009 63.1089092 123.00383009 63.1089092 121.43334866 62.69173527 C119.89282629 62.28251914 119.89282629 62.28251914 118.32118225 61.86503601 C91.86757666 54.83811245 65.40463369 47.84687266 38.9375 40.87109375 C37.98666283 40.62048061 37.03582565 40.36986748 36.05617523 40.11166 C27.79760716 37.93497606 19.53897231 35.75854557 11.28024292 33.58247375 C-4.46062286 29.43480152 -20.19950824 25.279657 -35.9375 21.12109375 C-37.05275055 20.82642212 -38.1680011 20.53175049 -39.31704712 20.22814941 C-45.12810132 18.6927286 -50.93909199 17.15706772 -56.75 15.62109375 C-41.05576221 -0.60565131 -21.08823678 -6.86196762 0 0 Z " fill="#91BA59" transform="translate(552.75,246.37890625)"/>
<path d="M0 0 C0.67295829 0.17830667 1.34591658 0.35661335 2.03926754 0.54032326 C4.27158635 1.13310615 6.50183889 1.73331051 8.73217773 2.33349609 C10.34089626 2.76217716 11.94974595 3.1903663 13.55871582 3.61810303 C17.02197846 4.53982352 20.48435611 5.46477322 23.94607544 6.39227295 C29.50872797 7.88260545 35.07327545 9.36577161 40.63818359 10.84765625 C46.47910831 12.40330579 52.3199461 13.95927444 58.16017151 15.51754761 C71.2823436 19.01833605 84.40925918 22.50072503 97.54077148 25.96630859 C98.42340542 26.1992695 99.30603935 26.43223042 100.21541977 26.67225075 C103.78009254 27.61305425 107.34479748 28.55373575 110.90954399 29.49425983 C158.24793287 41.98416611 205.55362609 54.5962116 252.85327148 67.23193359 C252.85327148 67.89193359 252.85327148 68.55193359 252.85327148 69.23193359 C223.8098548 89.4657933 223.8098548 89.4657933 207.80639648 86.75146484 C199.7945518 85.06970199 192.01349766 82.28659241 184.27940369 79.63978577 C174.86050608 76.44705425 165.33507581 73.84751625 155.71655273 71.34130859 C154.90045595 71.12840683 154.08435917 70.91550507 153.24353218 70.69615173 C149.84085171 69.80943471 146.43767338 68.92467131 143.0337038 68.04291534 C134.06468456 65.7188079 125.1111854 63.33729723 116.15809822 60.9526825 C111.50399819 59.71354658 106.84905137 58.4776016 102.1940918 57.24169922 C101.2621251 56.99423195 100.33015841 56.74676468 99.36995029 56.4917984 C84.20063068 52.46479521 69.02667876 48.45527919 53.85281658 44.44543362 C48.30511104 42.97934312 42.75765812 41.51230217 37.21044827 40.04433727 C21.03653278 35.76426013 4.86208938 31.48692878 -11.32741547 27.26613998 C-15.72325315 26.1194212 -20.11800345 24.96853902 -24.51300049 23.81860352 C-27.85950618 22.94545257 -31.20787184 22.07972518 -34.55639648 21.21435547 C-36.5097819 20.70366113 -38.46307653 20.19261938 -40.41625977 19.68115234 C-41.28866806 19.45836105 -42.16107635 19.23556976 -43.05992126 19.00602722 C-48.91905217 17.45960994 -48.91905217 17.45960994 -51.14672852 15.23193359 C-46.17930985 12.62419145 -41.19905993 10.04355446 -36.20532227 7.48657227 C-34.51017142 6.61392543 -32.81868675 5.73411699 -31.13110352 4.84692383 C-28.69780258 3.56929736 -26.25226844 2.31841957 -23.80297852 1.07177734 C-22.68372986 0.47344337 -22.68372986 0.47344337 -21.54187012 -0.13697815 C-20.82172729 -0.49742722 -20.10158447 -0.85787628 -19.35961914 -1.22924805 C-18.7378479 -1.55123672 -18.11607666 -1.8732254 -17.47546387 -2.20497131 C-11.81243892 -3.57430749 -5.48791872 -1.46689717 0 0 Z " fill="#91BA59" transform="translate(289.146728515625,292.76806640625)"/>
<path d="M0 0 C1.55298177 0.40959476 3.10611205 0.81862676 4.65937805 1.22714233 C8.86675932 2.33543429 13.07199675 3.45166726 17.27688217 4.56938553 C21.72610656 5.75061132 26.17725534 6.92454241 30.62817383 8.09936523 C39.07582765 10.3303751 47.52167223 12.56815581 55.96681499 14.80865002 C62.54705564 16.55423851 69.12799206 18.29717849 75.70947266 20.03808594 C76.62226518 20.27953622 77.5350577 20.5209865 78.4755106 20.76975346 C80.30974616 21.25493326 82.14398262 21.74010968 83.97821999 22.22528267 C120.17660928 31.80106741 156.36657286 41.40883272 192.5390625 51.08203125 C187.28306794 55.33558961 181.05641289 58.14315076 175.05981445 61.19921875 C173.59179546 61.9522987 172.128493 62.7146471 170.67016602 63.48632812 C168.54974481 64.60776233 166.41601105 65.69900507 164.27734375 66.78515625 C163.6363826 67.13088684 162.99542145 67.47661743 162.33503723 67.83282471 C154.81414655 71.5595407 147.24170104 69.21502751 139.48095703 67.11450195 C138.34502782 66.81547801 138.34502782 66.81547801 137.18615055 66.51041317 C134.67973282 65.8489779 132.17585174 65.17842395 129.671875 64.5078125 C127.871268 64.03066772 126.07050812 63.55409951 124.26960754 63.07806396 C119.41074293 61.79202445 114.55400563 60.49811516 109.69761276 59.20277786 C104.60247035 57.84524915 99.50536978 56.49511384 94.40844727 55.14428711 C85.97360626 52.90789751 77.53987514 50.66736904 69.10693359 48.42382812 C57.15548576 45.24441535 45.20124764 42.07560118 33.24609375 38.91015625 C29.54214356 37.92932358 25.83820729 36.94843838 22.13427734 35.9675293 C21.23898315 35.7304359 20.34368896 35.49334249 19.42126465 35.24906445 C10.21895518 32.81187279 1.01763849 30.37094233 -8.18359375 27.9296875 C-25.60754333 23.30687851 -43.03381745 18.69287253 -60.4609375 14.08203125 C-55.07778838 9.93019778 -49.01830981 7.04130825 -42.98168945 3.96484375 C-41.51367046 3.2117638 -40.050368 2.4494154 -38.59204102 1.67773438 C-36.47161981 0.55630017 -34.33788605 -0.53494257 -32.19921875 -1.62109375 C-31.5582576 -1.96682434 -30.91729645 -2.31255493 -30.25691223 -2.66876221 C-20.56054306 -7.47346095 -9.83415715 -2.62573511 0 0 Z " fill="#91BA59" transform="translate(766.4609375,100.91796875)"/>
<path d="M0 0 C12.44082705 2.61912148 24.82483584 5.30807761 37.1875 8.25 C42.405625 9.4875 47.62375 10.725 53 12 C53 32.46 53 52.92 53 74 C42.875 72.875 42.875 72.875 38.93920898 71.96850586 C38.04697632 71.76559937 37.15474365 71.56269287 36.23547363 71.3536377 C34.87948059 71.03743469 34.87948059 71.03743469 33.49609375 70.71484375 C32.21224792 70.42148132 32.21224792 70.42148132 30.90246582 70.12219238 C27.74621588 69.39944796 24.59196897 68.66797841 21.4375 67.9375 C14.363125 66.308125 7.28875 64.67875 0 63 C0 42.21 0 21.42 0 0 Z " fill="#8B8784" transform="translate(580,1123)"/>
<path d="M0 0 C8.3840625 1.85625 8.3840625 1.85625 16.9375 3.75 C18.66218506 4.13124023 20.38687012 4.51248047 22.16381836 4.90527344 C23.59751272 5.22322058 25.03118892 5.54124964 26.46484375 5.859375 C27.155177 6.01164551 27.84551025 6.16391602 28.5567627 6.32080078 C36.72422049 8.13549046 44.85347713 10.08317109 53 12 C53 32.79 53 53.58 53 75 C35.51 71.04 18.02 67.08 0 63 C0 42.21 0 21.42 0 0 Z " fill="#8B8784" transform="translate(106,1077)"/>
<path d="M0 0 C17.49 3.96 34.98 7.92 53 12 C53 32.79 53 53.58 53 75 C47.410625 73.7625 41.82125 72.525 36.0625 71.25 C34.33781494 70.86875977 32.61312988 70.48751953 30.83618164 70.09472656 C29.40248728 69.77677942 27.96881108 69.45875036 26.53515625 69.140625 C25.844823 68.98835449 25.15448975 68.83608398 24.4432373 68.67919922 C16.27577951 66.86450954 8.14652287 64.91682891 0 63 C0 42.21 0 21.42 0 0 Z " fill="#8B8784" transform="translate(633,761)"/>
<path d="M0 0 C8.0025 1.794375 16.005 3.58875 24.25 5.4375 C26.77172852 6.00267334 29.29345703 6.56784668 31.89160156 7.15014648 C33.89128472 7.59875691 35.89095975 8.04740353 37.890625 8.49609375 C38.92815918 8.72848755 39.96569336 8.96088135 41.03466797 9.20031738 C42.52619385 9.53513123 42.52619385 9.53513123 44.04785156 9.87670898 C44.90944885 10.06990219 45.77104614 10.2630954 46.65875244 10.46214294 C48.7785544 10.94912709 50.88992024 11.47248006 53 12 C53 32.79 53 53.58 53 75 C35.51 71.04 18.02 67.08 0 63 C0 42.21 0 21.42 0 0 Z " fill="#8B8784" transform="translate(53,504)"/>
<path d="M0 0 C11.57965351 2.27699872 23.13550971 4.62091354 34.64355469 7.23754883 C36.68859998 7.70194243 38.73486816 8.16067608 40.78125 8.61914062 C42.09642792 8.91634048 43.41153521 9.21385312 44.7265625 9.51171875 C45.88752441 9.77428467 47.04848633 10.03685059 48.24462891 10.30737305 C51 11 51 11 53 12 C53 32.46 53 52.92 53 74 C43.99784228 72.87473029 43.99784228 72.87473029 40.06860352 71.984375 C39.19152237 71.7874707 38.31444122 71.59056641 37.41078186 71.38769531 C36.49276291 71.17725586 35.57474396 70.96681641 34.62890625 70.75 C33.18450417 70.42273926 33.18450417 70.42273926 31.71092224 70.08886719 C29.69104404 69.63015958 27.67160431 69.16951729 25.65258789 68.70703125 C22.54895621 67.9969011 19.44355252 67.29494162 16.33789062 66.59375 C14.37228539 66.14631824 12.40678663 65.69841841 10.44140625 65.25 C9.50921768 65.03956055 8.57702911 64.82912109 7.61659241 64.61230469 C6.76157639 64.41540039 5.90656036 64.21849609 5.02563477 64.015625 C4.27032974 63.84321289 3.51502472 63.67080078 2.73683167 63.49316406 C1 63 1 63 0 62 C-0.09396057 60.06693502 -0.11743517 58.13041162 -0.11352539 56.19506836 C-0.11344986 54.95385727 -0.11337433 53.71264618 -0.11329651 52.43382263 C-0.10818911 51.0691626 -0.1029731 49.70450298 -0.09765625 48.33984375 C-0.095792 46.95121817 -0.09436813 45.56259193 -0.09336853 44.17396545 C-0.08954387 40.51278885 -0.07971403 36.8516517 -0.06866455 33.19049072 C-0.05844932 29.45707737 -0.05387067 25.72365766 -0.04882812 21.99023438 C-0.03809171 14.66013823 -0.02101591 7.33007464 0 0 Z " fill="#9B642E" transform="translate(53,442)"/>
<path d="M0 0 C0 20.79 0 41.58 0 63 C-4.764375 65.083125 -9.52875 67.16625 -14.4375 69.3125 C-16.66391235 70.28956909 -16.66391235 70.28956909 -18.93530273 71.28637695 C-20.13098877 71.80675537 -21.3266748 72.32713379 -22.55859375 72.86328125 C-23.16030396 73.12862671 -23.76201416 73.39397217 -24.38195801 73.6673584 C-29.21286981 75.76161772 -33.94940201 77.31646734 -39 79 C-39 58.54 -39 38.08 -39 17 C-31.5440625 13.6278125 -31.5440625 13.6278125 -23.9375 10.1875 C-22.38281006 9.48391357 -20.82812012 8.78032715 -19.22631836 8.05541992 C-17.97251783 7.48871568 -16.71869444 6.92206201 -15.46484375 6.35546875 C-14.83130981 6.06853149 -14.19777588 5.78159424 -13.54504395 5.48596191 C-1.39839094 0 -1.39839094 0 0 0 Z " fill="#8B8784" transform="translate(1037,1098)"/>
<path d="M0 0 C0 20.46 0 40.92 0 62 C-5.878125 64.64 -11.75625 67.28 -17.8125 70 C-19.66464111 70.8353125 -21.51678223 71.670625 -23.42504883 72.53125 C-24.89384531 73.18794228 -26.36282692 73.8442207 -27.83203125 74.5 C-28.59398804 74.84546875 -29.35594482 75.1909375 -30.14099121 75.546875 C-35.6577846 78 -35.6577846 78 -39 78 C-39 57.54 -39 37.08 -39 16 C-32.93625 13.36 -26.8725 10.72 -20.625 8 C-18.71154785 7.1646875 -16.7980957 6.329375 -14.82666016 5.46875 C-13.31425304 4.81221096 -11.80172853 4.15594226 -10.2890625 3.5 C-9.50039795 3.15453125 -8.7117334 2.8090625 -7.89916992 2.453125 C-2.2281436 0 -2.2281436 0 0 0 Z " fill="#8B8784" transform="translate(1426,432)"/>
<path d="M0 0 C0 20.46 0 40.92 0 62 C-5.878125 64.64 -11.75625 67.28 -17.8125 70 C-19.66464111 70.8353125 -21.51678223 71.670625 -23.42504883 72.53125 C-24.89384531 73.18794228 -26.36282692 73.8442207 -27.83203125 74.5 C-28.59398804 74.84546875 -29.35594482 75.1909375 -30.14099121 75.546875 C-35.6577846 78 -35.6577846 78 -39 78 C-39 57.54 -39 37.08 -39 16 C-32.93625 13.36 -26.8725 10.72 -20.625 8 C-18.71154785 7.1646875 -16.7980957 6.329375 -14.82666016 5.46875 C-13.31425304 4.81221096 -11.80172853 4.15594226 -10.2890625 3.5 C-9.50039795 3.15453125 -8.7117334 2.8090625 -7.89916992 2.453125 C-2.2281436 0 -2.2281436 0 0 0 Z " fill="#8B8784" transform="translate(998,743)"/>
<path d="M0 0 C0 20.46 0 40.92 0 62 C-13.51024488 68.75512244 -13.51024488 68.75512244 -18.82421875 70.9921875 C-19.95408203 71.46914062 -21.08394531 71.94609375 -22.24804688 72.4375 C-23.38306641 72.911875 -24.51808594 73.38625 -25.6875 73.875 C-26.86505859 74.37257813 -28.04261719 74.87015625 -29.25585938 75.3828125 C-37.85661702 79 -37.85661702 79 -39 79 C-39.10793226 57.97313515 -39.12070044 37.00460966 -38 16 C-32.74994038 13.71904682 -27.49886817 11.44044742 -22.24682617 9.1640625 C-20.45878224 8.38867428 -18.67102111 7.61263361 -16.88354492 6.8359375 C-14.32023283 5.72225688 -11.75592631 4.61089562 -9.19140625 3.5 C-8.3872377 3.15001953 -7.58306915 2.80003906 -6.75453186 2.43945312 C-1.11387171 0 -1.11387171 0 0 0 Z " fill="#8B8784" transform="translate(1386,1008)"/>
</svg>
